<?xml version="1.0" encoding="UTF-8" standalone="no"?>
<!-- Created with Inkscape (http://www.inkscape.org/) -->
<svg id="svg3213" xmlns:rdf="http://www.w3.org/1999/02/22-rdf-syntax-ns#" xmlns="http://www.w3.org/2000/svg" viewBox="0 0 48 48" height="100%" width="100%" version="1.1" xmlns:cc="http://creativecommons.org/ns#" xmlns:dc="http://purl.org/dc/elements/1.1/">
 <metadata id="metadata3218">
  <rdf:RDF>
   <cc:Work rdf:about="">
    <dc:format>image/svg+xml</dc:format>
    <dc:type rdf:resource="http://purl.org/dc/dcmitype/StillImage"/>
    <dc:title/>
   </cc:Work>
  </rdf:RDF>
 </metadata>
 <path id="path3037" stroke-linejoin="round" fill="none" stroke="#000" stroke-linecap="round" stroke-miterlimit="4" stroke-dasharray="none" stroke-width="1" d="m25.673,24.581c-1.8837,1.3583-1.3138-1.0948-3.5039-0.32219-2.1901,0.77258-0.20716,2.3251-2.5262,2.4494-2.319,0.12428-0.5134-1.6313-2.7735-2.1654-2.2601-0.53409-1.4313,1.844-3.4494,0.69483s0.45005-1.6499-1.1625-3.3211c-1.6125-1.6712-2.2011,0.77746-3.2775-1.2804-1.0764-2.0578,1.2706-1.1447,0.81757-3.4224-0.45304-2.2777-2.272-0.53595-2.065-2.849,0.20701-2.3131,1.6878-0.27602,2.5381-2.4371s-1.6216-1.6792-0.19686-3.5132,1.5691,0.68028,3.4527-0.67802c1.8837-1.3583-0.4563-2.2893,1.7338-3.0619,2.1901-0.77258,0.95219,1.4206,3.2712,1.2963,2.319-0.12428,0.85384-2.1726,3.1139-1.6385,2.2601,0.53409,0.03301,1.7099,2.0511,2.8591s1.8929-1.3661,3.5054,0.30512-0.89665,1.4563,0.17975,3.5141,2.331-0.12585,2.784,2.1519c0.45304,2.2777-1.5416,0.74033-1.7486,3.0534-0.20701,2.3131,2.029,1.1543,1.1787,3.3154s-1.6972-0.21066-3.1219,1.6233,1.0828,2.068-0.80089,3.4263z"/>
 <path id="path3039" stroke-linejoin="round" d="m26.8,15.439a6.2617,6.2617,0,1,1,-12.523,0,6.2617,6.2617,0,1,1,12.523,0z" transform="translate(-1.5654161,-0.12523329)" stroke="#000" stroke-linecap="round" stroke-miterlimit="4" stroke-dasharray="none" stroke-width="1" fill="none"/>
</svg>
